# xmcd CD database file
#
# Track frame offsets:
#	150
#	12712
#	26854
#	40056
#	54083
#	68737
#	84106
#	99228
#	113060
#	128365
#	142314
#	154121
#	169385
#	183962
#	197819
#
# Disc length: 2819 seconds
#
# Revision: 2
# Processed by: cddbd v1.5.2PL0 Copyright (c) Steve Scherf et al.
# Submitted via: CDex 1.70beta2
#
DISCID=c10b010f
DTITLE=Ella Fitzgerald - With A Song In My Heart CD1
DYEAR=2008
DGENRE=Blues
TTITLE0=Billy (I Always Dream Of  Billy)
TTITLE1=Baby, What Else Can I Do
TTITLE2=Lindy Hopper's Delight
TTITLE3=Moon Ray
TTITLE4=The Starlit Hour
TTITLE5=My Last Goodbye
TTITLE6=Please Tell Me The Truth
TTITLE7=What's The Matter With Me
TTITLE8=Tea Dance
TTITLE9=If It Weren't For You
TTITLE10=Is There Somebody Else?
TTITLE11=Jubilee Swing
TTITLE12=You're Gonna Loose Your Gal
TTITLE13=Sing Song Swing
TTITLE14=Take It From The Top
EXTD=
EXTT0=
EXTT1=
EXTT2=
EXTT3=
EXTT4=
EXTT5=
EXTT6=
EXTT7=
EXTT8=
EXTT9=
EXTT10=
EXTT11=
EXTT12=
EXTT13=
EXTT14=
PLAYORDER=
